<?xml version="1.0" encoding="UTF-8" standalone="no"?>
<svg
   xmlns:dc="http://purl.org/dc/elements/1.1/"
   xmlns:cc="http://creativecommons.org/ns#"
   xmlns:rdf="http://www.w3.org/1999/02/22-rdf-syntax-ns#"
   xmlns:svg="http://www.w3.org/2000/svg"
   xmlns="http://www.w3.org/2000/svg"
   xml:space="preserve"
   enable-background="new 0 0 756 594"
   viewBox="0 0 756 594"
   height="594px"
   width="756px"
   y="0px"
   x="0px"
   id="Layer_1"
   version="1.1"><metadata
     id="metadata4861"><rdf:RDF><cc:Work
         rdf:about=""><dc:format>image/svg+xml</dc:format><dc:type
           rdf:resource="http://purl.org/dc/dcmitype/StillImage" /><dc:title></dc:title></cc:Work></rdf:RDF></metadata><defs
     id="defs4859" /><ellipse
     id="ellipse4843"
     ry="41.463"
     rx="97.561"
     cy="136.033"
     cx="247.268"
     stroke-miterlimit="10"
     stroke="#000000"
     fill="#FFFFFF" /><g
     id="g4845"><rect
       id="rect4847"
       height="288"
       width="216"
       stroke-miterlimit="10"
       stroke="#000000"
       fill="#FFFFFF"
       y="216"
       x="36" /><circle
       id="circle4849"
       r="72"
       cy="238.927"
       cx="615.203"
       stroke-miterlimit="10"
       stroke="#000000"
       fill="#FFFFFF" /></g><polygon
     id="polygon4851"
     points="420.256,115.835 398.121,77.496 420.256,39.157   464.525,39.157 486.66,77.496 464.525,115.835 "
     stroke-miterlimit="10"
     stroke="#000000"
     fill="#FFFFFF" /><line
     id="line4853"
     y2="383.188"
     x2="509.057"
     y1="378.31"
     x1="322.065"
     stroke-miterlimit="10"
     stroke="#000000"
     fill="none" /><path
     id="path4855"
     d="M508.244,328.716H391.983h1.626  c-4.565,0.828-16.349,6.686-20.834,2.646c-3.792-3.416-0.329-29.001,0.016-33.234c1.414-17.359,4.221-35.872,2.109-53.334  c-3.366-27.833-38.04-10.087-52.732-2.098c-16.061,8.733-30.593,13.914-48.884,13.662"
     stroke-miterlimit="10"
     stroke="#000000"
     fill="none" /></svg>